<mxfile host="app.diagrams.net" modified="2023-09-01T01:30:51.352Z" agent="Mozilla/5.0 (X11; Linux x86_64) AppleWebKit/537.36 (KHTML, like Gecko) Chrome/116.0.0.0 Safari/537.36" etag="LZYWlY08ZHBDIw4eFVk2" version="21.6.5" type="github">
  <diagram name="第 1 页" id="99LrgCuY8dMpkUbfyUKW">
    <mxGraphModel dx="4792" dy="2345" grid="0" gridSize="10" guides="1" tooltips="1" connect="1" arrows="1" fold="1" page="1" pageScale="1" pageWidth="827" pageHeight="1169" math="1" shadow="0">
      <root>
        <mxCell id="0" />
        <mxCell id="1" parent="0" />
        <mxCell id="BA_Z5eX-vC3Ro55MNIHe-1" value="" style="rounded=0;whiteSpace=wrap;html=1;sketch=1;curveFitting=1;jiggle=2;" vertex="1" parent="1">
          <mxGeometry x="-372" y="456" width="50" height="195" as="geometry" />
        </mxCell>
        <mxCell id="BA_Z5eX-vC3Ro55MNIHe-2" value="" style="ellipse;whiteSpace=wrap;html=1;aspect=fixed;sketch=1;curveFitting=1;jiggle=2;" vertex="1" parent="1">
          <mxGeometry x="-512" y="501" width="45" height="45" as="geometry" />
        </mxCell>
        <mxCell id="BA_Z5eX-vC3Ro55MNIHe-3" value="" style="ellipse;whiteSpace=wrap;html=1;aspect=fixed;sketch=1;curveFitting=1;jiggle=2;" vertex="1" parent="1">
          <mxGeometry x="-512" y="561" width="45" height="45" as="geometry" />
        </mxCell>
        <mxCell id="BA_Z5eX-vC3Ro55MNIHe-4" value="" style="endArrow=classic;html=1;rounded=0;sketch=1;hachureGap=4;jiggle=2;curveFitting=1;fontFamily=Architects Daughter;fontSource=https%3A%2F%2Ffonts.googleapis.com%2Fcss%3Ffamily%3DArchitects%2BDaughter;fontSize=16;" edge="1" parent="1">
          <mxGeometry width="50" height="50" relative="1" as="geometry">
            <mxPoint x="-462" y="552.25" as="sourcePoint" />
            <mxPoint x="-402" y="551" as="targetPoint" />
          </mxGeometry>
        </mxCell>
        <mxCell id="BA_Z5eX-vC3Ro55MNIHe-6" value="Block" style="shape=process;whiteSpace=wrap;html=1;backgroundOutline=1;sketch=1;hachureGap=4;jiggle=2;curveFitting=1;fontFamily=Architects Daughter;fontSource=https%3A%2F%2Ffonts.googleapis.com%2Fcss%3Ffamily%3DArchitects%2BDaughter;fontSize=20;" vertex="1" parent="1">
          <mxGeometry x="266" y="460" width="106" height="187.5" as="geometry" />
        </mxCell>
        <mxCell id="BA_Z5eX-vC3Ro55MNIHe-7" value="" style="rounded=0;whiteSpace=wrap;html=1;sketch=1;curveFitting=1;jiggle=2;" vertex="1" parent="1">
          <mxGeometry x="486" y="456" width="50" height="195" as="geometry" />
        </mxCell>
        <mxCell id="BA_Z5eX-vC3Ro55MNIHe-9" value="" style="endArrow=classic;html=1;rounded=0;sketch=1;hachureGap=4;jiggle=2;curveFitting=1;fontFamily=Architects Daughter;fontSource=https%3A%2F%2Ffonts.googleapis.com%2Fcss%3Ffamily%3DArchitects%2BDaughter;fontSize=16;" edge="1" parent="1">
          <mxGeometry width="50" height="50" relative="1" as="geometry">
            <mxPoint x="-299" y="554.13" as="sourcePoint" />
            <mxPoint x="-239" y="552.88" as="targetPoint" />
          </mxGeometry>
        </mxCell>
        <mxCell id="BA_Z5eX-vC3Ro55MNIHe-10" value="" style="endArrow=classic;html=1;rounded=0;sketch=1;hachureGap=4;jiggle=2;curveFitting=1;fontFamily=Architects Daughter;fontSource=https%3A%2F%2Ffonts.googleapis.com%2Fcss%3Ffamily%3DArchitects%2BDaughter;fontSize=16;" edge="1" parent="1">
          <mxGeometry width="50" height="50" relative="1" as="geometry">
            <mxPoint x="406" y="554.25" as="sourcePoint" />
            <mxPoint x="466" y="553" as="targetPoint" />
          </mxGeometry>
        </mxCell>
        <mxCell id="BA_Z5eX-vC3Ro55MNIHe-11" value="" style="ellipse;whiteSpace=wrap;html=1;aspect=fixed;sketch=1;curveFitting=1;jiggle=2;" vertex="1" parent="1">
          <mxGeometry x="596" y="489" width="45" height="45" as="geometry" />
        </mxCell>
        <mxCell id="BA_Z5eX-vC3Ro55MNIHe-12" value="" style="ellipse;whiteSpace=wrap;html=1;aspect=fixed;sketch=1;curveFitting=1;jiggle=2;" vertex="1" parent="1">
          <mxGeometry x="596" y="549" width="45" height="45" as="geometry" />
        </mxCell>
        <mxCell id="BA_Z5eX-vC3Ro55MNIHe-13" value="Block" style="shape=process;whiteSpace=wrap;html=1;backgroundOutline=1;sketch=1;hachureGap=4;jiggle=2;curveFitting=1;fontFamily=Architects Daughter;fontSource=https%3A%2F%2Ffonts.googleapis.com%2Fcss%3Ffamily%3DArchitects%2BDaughter;fontSize=20;" vertex="1" parent="1">
          <mxGeometry x="-436" y="845.5" width="106" height="187.5" as="geometry" />
        </mxCell>
        <mxCell id="BA_Z5eX-vC3Ro55MNIHe-14" value="&lt;font face=&quot;Architects Daughter&quot;&gt;&lt;span style=&quot;font-size: 20px;&quot;&gt;W&lt;br&gt;&lt;/span&gt;&lt;/font&gt;" style="rounded=0;whiteSpace=wrap;html=1;sketch=1;curveFitting=1;jiggle=2;" vertex="1" parent="1">
          <mxGeometry x="-146" y="845.5" width="50" height="195" as="geometry" />
        </mxCell>
        <mxCell id="BA_Z5eX-vC3Ro55MNIHe-15" value="" style="endArrow=classic;html=1;rounded=0;sketch=1;hachureGap=4;jiggle=2;curveFitting=1;fontFamily=Architects Daughter;fontSource=https%3A%2F%2Ffonts.googleapis.com%2Fcss%3Ffamily%3DArchitects%2BDaughter;fontSize=16;" edge="1" parent="1">
          <mxGeometry width="50" height="50" relative="1" as="geometry">
            <mxPoint x="-236" y="947.3699999999999" as="sourcePoint" />
            <mxPoint x="-176" y="946.1199999999999" as="targetPoint" />
          </mxGeometry>
        </mxCell>
        <mxCell id="BA_Z5eX-vC3Ro55MNIHe-16" value="" style="endArrow=classic;html=1;rounded=0;sketch=1;hachureGap=4;jiggle=2;curveFitting=1;fontFamily=Architects Daughter;fontSource=https%3A%2F%2Ffonts.googleapis.com%2Fcss%3Ffamily%3DArchitects%2BDaughter;fontSize=16;" edge="1" parent="1">
          <mxGeometry width="50" height="50" relative="1" as="geometry">
            <mxPoint x="58" y="947.3699999999999" as="sourcePoint" />
            <mxPoint x="118" y="946.1199999999999" as="targetPoint" />
          </mxGeometry>
        </mxCell>
        <mxCell id="BA_Z5eX-vC3Ro55MNIHe-18" value="&lt;font style=&quot;font-size: 20px;&quot; data-font-src=&quot;https://fonts.googleapis.com/css?family=Architects+Daughter&quot; face=&quot;Architects Daughter&quot;&gt;W&lt;/font&gt;" style="rounded=0;whiteSpace=wrap;html=1;sketch=1;curveFitting=1;jiggle=2;" vertex="1" parent="1">
          <mxGeometry x="164" y="845.5" width="50" height="195" as="geometry" />
        </mxCell>
        <mxCell id="BA_Z5eX-vC3Ro55MNIHe-19" value="&lt;font style=&quot;font-size: 20px;&quot; data-font-src=&quot;https://fonts.googleapis.com/css?family=Architects+Daughter&quot; face=&quot;Architects Daughter&quot;&gt;f&lt;/font&gt;" style="ellipse;whiteSpace=wrap;html=1;aspect=fixed;sketch=1;curveFitting=1;jiggle=2;" vertex="1" parent="1">
          <mxGeometry x="4" y="924.25" width="45" height="45" as="geometry" />
        </mxCell>
        <mxCell id="BA_Z5eX-vC3Ro55MNIHe-20" value="" style="endArrow=classic;html=1;rounded=0;sketch=1;hachureGap=4;jiggle=2;curveFitting=1;fontFamily=Architects Daughter;fontSource=https%3A%2F%2Ffonts.googleapis.com%2Fcss%3Ffamily%3DArchitects%2BDaughter;fontSize=16;" edge="1" parent="1">
          <mxGeometry width="50" height="50" relative="1" as="geometry">
            <mxPoint x="-76" y="947.3699999999999" as="sourcePoint" />
            <mxPoint x="-16" y="946.1199999999999" as="targetPoint" />
          </mxGeometry>
        </mxCell>
        <mxCell id="BA_Z5eX-vC3Ro55MNIHe-21" value="&lt;font style=&quot;font-size: 20px;&quot; data-font-src=&quot;https://fonts.googleapis.com/css?family=Architects+Daughter&quot; face=&quot;Architects Daughter&quot;&gt;f&lt;/font&gt;" style="ellipse;whiteSpace=wrap;html=1;aspect=fixed;sketch=1;curveFitting=1;jiggle=2;" vertex="1" parent="1">
          <mxGeometry x="304" y="924.25" width="45" height="45" as="geometry" />
        </mxCell>
        <mxCell id="BA_Z5eX-vC3Ro55MNIHe-22" value="" style="endArrow=classic;html=1;rounded=0;sketch=1;hachureGap=4;jiggle=2;curveFitting=1;fontFamily=Architects Daughter;fontSource=https%3A%2F%2Ffonts.googleapis.com%2Fcss%3Ffamily%3DArchitects%2BDaughter;fontSize=16;" edge="1" parent="1">
          <mxGeometry width="50" height="50" relative="1" as="geometry">
            <mxPoint x="224" y="947.3699999999999" as="sourcePoint" />
            <mxPoint x="284" y="946.1199999999999" as="targetPoint" />
          </mxGeometry>
        </mxCell>
        <mxCell id="BA_Z5eX-vC3Ro55MNIHe-23" value="" style="endArrow=classic;html=1;rounded=0;sketch=1;hachureGap=4;jiggle=2;curveFitting=1;fontFamily=Architects Daughter;fontSource=https%3A%2F%2Ffonts.googleapis.com%2Fcss%3Ffamily%3DArchitects%2BDaughter;fontSize=16;" edge="1" parent="1">
          <mxGeometry width="50" height="50" relative="1" as="geometry">
            <mxPoint x="84" y="945.5" as="sourcePoint" />
            <mxPoint x="431" y="882.5" as="targetPoint" />
            <Array as="points">
              <mxPoint x="84" y="805.5" />
              <mxPoint x="430" y="799.5" />
            </Array>
          </mxGeometry>
        </mxCell>
        <mxCell id="BA_Z5eX-vC3Ro55MNIHe-31" value="&lt;font face=&quot;Architects Daughter&quot;&gt;&lt;span style=&quot;font-size: 20px;&quot;&gt;点乘&lt;br&gt;&lt;/span&gt;&lt;/font&gt;" style="ellipse;whiteSpace=wrap;html=1;aspect=fixed;sketch=1;curveFitting=1;jiggle=2;" vertex="1" parent="1">
          <mxGeometry x="409" y="892.5" width="45" height="45" as="geometry" />
        </mxCell>
        <mxCell id="BA_Z5eX-vC3Ro55MNIHe-25" value="" style="endArrow=classic;html=1;rounded=0;sketch=1;hachureGap=4;jiggle=2;curveFitting=1;fontFamily=Architects Daughter;fontSource=https%3A%2F%2Ffonts.googleapis.com%2Fcss%3Ffamily%3DArchitects%2BDaughter;fontSize=16;" edge="1" parent="1">
          <mxGeometry width="50" height="50" relative="1" as="geometry">
            <mxPoint x="370" y="947.25" as="sourcePoint" />
            <mxPoint x="511" y="946.25" as="targetPoint" />
          </mxGeometry>
        </mxCell>
        <mxCell id="BA_Z5eX-vC3Ro55MNIHe-33" value="Block" style="shape=process;whiteSpace=wrap;html=1;backgroundOutline=1;sketch=1;hachureGap=4;jiggle=2;curveFitting=1;fontFamily=Architects Daughter;fontSource=https%3A%2F%2Ffonts.googleapis.com%2Fcss%3Ffamily%3DArchitects%2BDaughter;fontSize=20;" vertex="1" parent="1">
          <mxGeometry x="1273" y="891.5" width="106" height="187.5" as="geometry" />
        </mxCell>
        <mxCell id="BA_Z5eX-vC3Ro55MNIHe-34" value="&lt;font face=&quot;Architects Daughter&quot;&gt;&lt;span style=&quot;font-size: 20px;&quot;&gt;W&lt;br&gt;&lt;/span&gt;&lt;/font&gt;" style="rounded=0;whiteSpace=wrap;html=1;sketch=1;curveFitting=1;jiggle=2;" vertex="1" parent="1">
          <mxGeometry x="1563" y="891.5" width="50" height="195" as="geometry" />
        </mxCell>
        <mxCell id="BA_Z5eX-vC3Ro55MNIHe-35" value="" style="endArrow=classic;html=1;rounded=0;sketch=1;hachureGap=4;jiggle=2;curveFitting=1;fontFamily=Architects Daughter;fontSource=https%3A%2F%2Ffonts.googleapis.com%2Fcss%3Ffamily%3DArchitects%2BDaughter;fontSize=16;" edge="1" parent="1">
          <mxGeometry width="50" height="50" relative="1" as="geometry">
            <mxPoint x="1473" y="993.3699999999999" as="sourcePoint" />
            <mxPoint x="1533" y="992.1199999999999" as="targetPoint" />
          </mxGeometry>
        </mxCell>
        <mxCell id="BA_Z5eX-vC3Ro55MNIHe-36" value="" style="endArrow=classic;html=1;rounded=0;sketch=1;hachureGap=4;jiggle=2;curveFitting=1;fontFamily=Architects Daughter;fontSource=https%3A%2F%2Ffonts.googleapis.com%2Fcss%3Ffamily%3DArchitects%2BDaughter;fontSize=16;" edge="1" parent="1">
          <mxGeometry width="50" height="50" relative="1" as="geometry">
            <mxPoint x="1767" y="993.3699999999999" as="sourcePoint" />
            <mxPoint x="1827" y="992.1199999999999" as="targetPoint" />
          </mxGeometry>
        </mxCell>
        <mxCell id="BA_Z5eX-vC3Ro55MNIHe-37" value="&lt;font style=&quot;font-size: 20px;&quot; data-font-src=&quot;https://fonts.googleapis.com/css?family=Architects+Daughter&quot; face=&quot;Architects Daughter&quot;&gt;W&lt;/font&gt;" style="rounded=0;whiteSpace=wrap;html=1;sketch=1;curveFitting=1;jiggle=2;" vertex="1" parent="1">
          <mxGeometry x="1873" y="891.5" width="50" height="195" as="geometry" />
        </mxCell>
        <mxCell id="BA_Z5eX-vC3Ro55MNIHe-38" value="&lt;font style=&quot;font-size: 20px;&quot; data-font-src=&quot;https://fonts.googleapis.com/css?family=Architects+Daughter&quot; face=&quot;Architects Daughter&quot;&gt;f&lt;/font&gt;" style="ellipse;whiteSpace=wrap;html=1;aspect=fixed;sketch=1;curveFitting=1;jiggle=2;" vertex="1" parent="1">
          <mxGeometry x="1713" y="970.25" width="45" height="45" as="geometry" />
        </mxCell>
        <mxCell id="BA_Z5eX-vC3Ro55MNIHe-39" value="" style="endArrow=classic;html=1;rounded=0;sketch=1;hachureGap=4;jiggle=2;curveFitting=1;fontFamily=Architects Daughter;fontSource=https%3A%2F%2Ffonts.googleapis.com%2Fcss%3Ffamily%3DArchitects%2BDaughter;fontSize=16;" edge="1" parent="1">
          <mxGeometry width="50" height="50" relative="1" as="geometry">
            <mxPoint x="1633" y="993.3699999999999" as="sourcePoint" />
            <mxPoint x="1693" y="992.1199999999999" as="targetPoint" />
          </mxGeometry>
        </mxCell>
        <mxCell id="BA_Z5eX-vC3Ro55MNIHe-40" value="&lt;font style=&quot;font-size: 20px;&quot; data-font-src=&quot;https://fonts.googleapis.com/css?family=Architects+Daughter&quot; face=&quot;Architects Daughter&quot;&gt;f&lt;/font&gt;" style="ellipse;whiteSpace=wrap;html=1;aspect=fixed;sketch=1;curveFitting=1;jiggle=2;" vertex="1" parent="1">
          <mxGeometry x="2013" y="970.25" width="45" height="45" as="geometry" />
        </mxCell>
        <mxCell id="BA_Z5eX-vC3Ro55MNIHe-41" value="" style="endArrow=classic;html=1;rounded=0;sketch=1;hachureGap=4;jiggle=2;curveFitting=1;fontFamily=Architects Daughter;fontSource=https%3A%2F%2Ffonts.googleapis.com%2Fcss%3Ffamily%3DArchitects%2BDaughter;fontSize=16;" edge="1" parent="1">
          <mxGeometry width="50" height="50" relative="1" as="geometry">
            <mxPoint x="1933" y="993.3699999999999" as="sourcePoint" />
            <mxPoint x="1993" y="992.1199999999999" as="targetPoint" />
          </mxGeometry>
        </mxCell>
        <mxCell id="BA_Z5eX-vC3Ro55MNIHe-42" value="" style="endArrow=classic;html=1;rounded=0;sketch=1;hachureGap=4;jiggle=2;curveFitting=1;fontFamily=Architects Daughter;fontSource=https%3A%2F%2Ffonts.googleapis.com%2Fcss%3Ffamily%3DArchitects%2BDaughter;fontSize=16;" edge="1" parent="1">
          <mxGeometry width="50" height="50" relative="1" as="geometry">
            <mxPoint x="1793" y="991.5" as="sourcePoint" />
            <mxPoint x="2140" y="928.5" as="targetPoint" />
            <Array as="points">
              <mxPoint x="1793" y="851.5" />
              <mxPoint x="2139" y="845.5" />
            </Array>
          </mxGeometry>
        </mxCell>
        <mxCell id="BA_Z5eX-vC3Ro55MNIHe-43" value="&lt;font face=&quot;Architects Daughter&quot;&gt;&lt;span style=&quot;font-size: 20px;&quot;&gt;点乘&lt;br&gt;&lt;/span&gt;&lt;/font&gt;" style="ellipse;whiteSpace=wrap;html=1;aspect=fixed;sketch=1;curveFitting=1;jiggle=2;" vertex="1" parent="1">
          <mxGeometry x="2118" y="938.5" width="45" height="45" as="geometry" />
        </mxCell>
        <mxCell id="BA_Z5eX-vC3Ro55MNIHe-44" value="" style="endArrow=classic;html=1;rounded=0;sketch=1;hachureGap=4;jiggle=2;curveFitting=1;fontFamily=Architects Daughter;fontSource=https%3A%2F%2Ffonts.googleapis.com%2Fcss%3Ffamily%3DArchitects%2BDaughter;fontSize=16;" edge="1" parent="1">
          <mxGeometry width="50" height="50" relative="1" as="geometry">
            <mxPoint x="2079" y="993.25" as="sourcePoint" />
            <mxPoint x="2220" y="992.25" as="targetPoint" />
          </mxGeometry>
        </mxCell>
        <mxCell id="BA_Z5eX-vC3Ro55MNIHe-45" value="" style="rounded=0;whiteSpace=wrap;html=1;sketch=1;curveFitting=1;jiggle=2;" vertex="1" parent="1">
          <mxGeometry x="1499" y="509" width="50" height="195" as="geometry" />
        </mxCell>
        <mxCell id="BA_Z5eX-vC3Ro55MNIHe-46" value="" style="ellipse;whiteSpace=wrap;html=1;aspect=fixed;sketch=1;curveFitting=1;jiggle=2;" vertex="1" parent="1">
          <mxGeometry x="1359" y="554" width="45" height="45" as="geometry" />
        </mxCell>
        <mxCell id="BA_Z5eX-vC3Ro55MNIHe-47" value="" style="ellipse;whiteSpace=wrap;html=1;aspect=fixed;sketch=1;curveFitting=1;jiggle=2;" vertex="1" parent="1">
          <mxGeometry x="1359" y="614" width="45" height="45" as="geometry" />
        </mxCell>
        <mxCell id="BA_Z5eX-vC3Ro55MNIHe-48" value="" style="endArrow=classic;html=1;rounded=0;sketch=1;hachureGap=4;jiggle=2;curveFitting=1;fontFamily=Architects Daughter;fontSource=https%3A%2F%2Ffonts.googleapis.com%2Fcss%3Ffamily%3DArchitects%2BDaughter;fontSize=16;" edge="1" parent="1">
          <mxGeometry width="50" height="50" relative="1" as="geometry">
            <mxPoint x="1409" y="605.25" as="sourcePoint" />
            <mxPoint x="1469" y="604" as="targetPoint" />
          </mxGeometry>
        </mxCell>
        <mxCell id="BA_Z5eX-vC3Ro55MNIHe-49" value="Block" style="shape=process;whiteSpace=wrap;html=1;backgroundOutline=1;sketch=1;hachureGap=4;jiggle=2;curveFitting=1;fontFamily=Architects Daughter;fontSource=https%3A%2F%2Ffonts.googleapis.com%2Fcss%3Ffamily%3DArchitects%2BDaughter;fontSize=20;" vertex="1" parent="1">
          <mxGeometry x="1649" y="515" width="106" height="187.5" as="geometry" />
        </mxCell>
        <mxCell id="BA_Z5eX-vC3Ro55MNIHe-50" value="" style="rounded=0;whiteSpace=wrap;html=1;sketch=1;curveFitting=1;jiggle=2;" vertex="1" parent="1">
          <mxGeometry x="1869" y="511" width="50" height="195" as="geometry" />
        </mxCell>
        <mxCell id="BA_Z5eX-vC3Ro55MNIHe-51" value="" style="endArrow=classic;html=1;rounded=0;sketch=1;hachureGap=4;jiggle=2;curveFitting=1;fontFamily=Architects Daughter;fontSource=https%3A%2F%2Ffonts.googleapis.com%2Fcss%3Ffamily%3DArchitects%2BDaughter;fontSize=16;" edge="1" parent="1">
          <mxGeometry width="50" height="50" relative="1" as="geometry">
            <mxPoint x="1572" y="607.13" as="sourcePoint" />
            <mxPoint x="1632" y="605.88" as="targetPoint" />
          </mxGeometry>
        </mxCell>
        <mxCell id="BA_Z5eX-vC3Ro55MNIHe-52" value="" style="endArrow=classic;html=1;rounded=0;sketch=1;hachureGap=4;jiggle=2;curveFitting=1;fontFamily=Architects Daughter;fontSource=https%3A%2F%2Ffonts.googleapis.com%2Fcss%3Ffamily%3DArchitects%2BDaughter;fontSize=16;" edge="1" parent="1">
          <mxGeometry width="50" height="50" relative="1" as="geometry">
            <mxPoint x="1789" y="609.25" as="sourcePoint" />
            <mxPoint x="1849" y="608" as="targetPoint" />
          </mxGeometry>
        </mxCell>
        <mxCell id="BA_Z5eX-vC3Ro55MNIHe-53" value="" style="ellipse;whiteSpace=wrap;html=1;aspect=fixed;sketch=1;curveFitting=1;jiggle=2;" vertex="1" parent="1">
          <mxGeometry x="1979" y="544" width="45" height="45" as="geometry" />
        </mxCell>
        <mxCell id="BA_Z5eX-vC3Ro55MNIHe-54" value="" style="ellipse;whiteSpace=wrap;html=1;aspect=fixed;sketch=1;curveFitting=1;jiggle=2;" vertex="1" parent="1">
          <mxGeometry x="1979" y="604" width="45" height="45" as="geometry" />
        </mxCell>
        <mxCell id="BA_Z5eX-vC3Ro55MNIHe-55" value="Block" style="shape=process;whiteSpace=wrap;html=1;backgroundOutline=1;sketch=1;hachureGap=4;jiggle=2;curveFitting=1;fontFamily=Architects Daughter;fontSource=https%3A%2F%2Ffonts.googleapis.com%2Fcss%3Ffamily%3DArchitects%2BDaughter;fontSize=20;" vertex="1" parent="1">
          <mxGeometry x="-213" y="456" width="106" height="187.5" as="geometry" />
        </mxCell>
        <mxCell id="BA_Z5eX-vC3Ro55MNIHe-56" value="" style="endArrow=classic;html=1;rounded=0;sketch=1;hachureGap=4;jiggle=2;curveFitting=1;fontFamily=Architects Daughter;fontSource=https%3A%2F%2Ffonts.googleapis.com%2Fcss%3Ffamily%3DArchitects%2BDaughter;fontSize=16;" edge="1" parent="1">
          <mxGeometry width="50" height="50" relative="1" as="geometry">
            <mxPoint x="-73" y="550.25" as="sourcePoint" />
            <mxPoint x="-13" y="549" as="targetPoint" />
          </mxGeometry>
        </mxCell>
        <mxCell id="BA_Z5eX-vC3Ro55MNIHe-57" value="Block" style="shape=process;whiteSpace=wrap;html=1;backgroundOutline=1;sketch=1;hachureGap=4;jiggle=2;curveFitting=1;fontFamily=Architects Daughter;fontSource=https%3A%2F%2Ffonts.googleapis.com%2Fcss%3Ffamily%3DArchitects%2BDaughter;fontSize=20;" vertex="1" parent="1">
          <mxGeometry x="29" y="461.5" width="106" height="187.5" as="geometry" />
        </mxCell>
        <mxCell id="BA_Z5eX-vC3Ro55MNIHe-58" value="" style="endArrow=classic;html=1;rounded=0;sketch=1;hachureGap=4;jiggle=2;curveFitting=1;fontFamily=Architects Daughter;fontSource=https%3A%2F%2Ffonts.googleapis.com%2Fcss%3Ffamily%3DArchitects%2BDaughter;fontSize=16;" edge="1" parent="1">
          <mxGeometry width="50" height="50" relative="1" as="geometry">
            <mxPoint x="169" y="555.75" as="sourcePoint" />
            <mxPoint x="229" y="554.5" as="targetPoint" />
          </mxGeometry>
        </mxCell>
        <mxCell id="BA_Z5eX-vC3Ro55MNIHe-59" value="&lt;font face=&quot;Architects Daughter&quot;&gt;&lt;span style=&quot;font-size: 20px;&quot;&gt;W&lt;br&gt;&lt;/span&gt;&lt;/font&gt;" style="rounded=0;whiteSpace=wrap;html=1;sketch=1;curveFitting=1;jiggle=2;" vertex="1" parent="1">
          <mxGeometry x="2279" y="891.5" width="50" height="195" as="geometry" />
        </mxCell>
        <mxCell id="BA_Z5eX-vC3Ro55MNIHe-61" value="" style="endArrow=classic;html=1;rounded=0;sketch=1;hachureGap=4;jiggle=2;curveFitting=1;fontFamily=Architects Daughter;fontSource=https%3A%2F%2Ffonts.googleapis.com%2Fcss%3Ffamily%3DArchitects%2BDaughter;fontSize=16;" edge="1" parent="1">
          <mxGeometry width="50" height="50" relative="1" as="geometry">
            <mxPoint x="2483" y="993.3699999999999" as="sourcePoint" />
            <mxPoint x="2666" y="984" as="targetPoint" />
          </mxGeometry>
        </mxCell>
        <mxCell id="BA_Z5eX-vC3Ro55MNIHe-62" value="&lt;font style=&quot;font-size: 20px;&quot; data-font-src=&quot;https://fonts.googleapis.com/css?family=Architects+Daughter&quot; face=&quot;Architects Daughter&quot;&gt;W&lt;/font&gt;" style="rounded=0;whiteSpace=wrap;html=1;sketch=1;curveFitting=1;jiggle=2;" vertex="1" parent="1">
          <mxGeometry x="2688" y="878" width="50" height="195" as="geometry" />
        </mxCell>
        <mxCell id="BA_Z5eX-vC3Ro55MNIHe-63" value="&lt;font style=&quot;font-size: 20px;&quot; data-font-src=&quot;https://fonts.googleapis.com/css?family=Architects+Daughter&quot; face=&quot;Architects Daughter&quot;&gt;f&lt;/font&gt;" style="ellipse;whiteSpace=wrap;html=1;aspect=fixed;sketch=1;curveFitting=1;jiggle=2;" vertex="1" parent="1">
          <mxGeometry x="2429" y="970.25" width="45" height="45" as="geometry" />
        </mxCell>
        <mxCell id="BA_Z5eX-vC3Ro55MNIHe-64" value="" style="endArrow=classic;html=1;rounded=0;sketch=1;hachureGap=4;jiggle=2;curveFitting=1;fontFamily=Architects Daughter;fontSource=https%3A%2F%2Ffonts.googleapis.com%2Fcss%3Ffamily%3DArchitects%2BDaughter;fontSize=16;" edge="1" parent="1">
          <mxGeometry width="50" height="50" relative="1" as="geometry">
            <mxPoint x="2349" y="993.3699999999999" as="sourcePoint" />
            <mxPoint x="2409" y="992.1199999999999" as="targetPoint" />
          </mxGeometry>
        </mxCell>
        <mxCell id="BA_Z5eX-vC3Ro55MNIHe-65" value="&lt;font style=&quot;font-size: 20px;&quot; data-font-src=&quot;https://fonts.googleapis.com/css?family=Architects+Daughter&quot; face=&quot;Architects Daughter&quot;&gt;f&lt;/font&gt;" style="ellipse;whiteSpace=wrap;html=1;aspect=fixed;sketch=1;curveFitting=1;jiggle=2;" vertex="1" parent="1">
          <mxGeometry x="2828" y="956.75" width="45" height="45" as="geometry" />
        </mxCell>
        <mxCell id="BA_Z5eX-vC3Ro55MNIHe-66" value="" style="endArrow=classic;html=1;rounded=0;sketch=1;hachureGap=4;jiggle=2;curveFitting=1;fontFamily=Architects Daughter;fontSource=https%3A%2F%2Ffonts.googleapis.com%2Fcss%3Ffamily%3DArchitects%2BDaughter;fontSize=16;" edge="1" parent="1">
          <mxGeometry width="50" height="50" relative="1" as="geometry">
            <mxPoint x="2748" y="979.8699999999999" as="sourcePoint" />
            <mxPoint x="2808" y="978.6199999999999" as="targetPoint" />
          </mxGeometry>
        </mxCell>
        <mxCell id="BA_Z5eX-vC3Ro55MNIHe-67" value="" style="endArrow=classic;html=1;rounded=0;sketch=1;hachureGap=4;jiggle=2;curveFitting=1;fontFamily=Architects Daughter;fontSource=https%3A%2F%2Ffonts.googleapis.com%2Fcss%3Ffamily%3DArchitects%2BDaughter;fontSize=16;" edge="1" parent="1">
          <mxGeometry width="50" height="50" relative="1" as="geometry">
            <mxPoint x="2608" y="978" as="sourcePoint" />
            <mxPoint x="2955" y="915" as="targetPoint" />
            <Array as="points">
              <mxPoint x="2608" y="838" />
              <mxPoint x="2954" y="832" />
            </Array>
          </mxGeometry>
        </mxCell>
        <mxCell id="BA_Z5eX-vC3Ro55MNIHe-68" value="&lt;font face=&quot;Architects Daughter&quot;&gt;&lt;span style=&quot;font-size: 20px;&quot;&gt;点乘&lt;br&gt;&lt;/span&gt;&lt;/font&gt;" style="ellipse;whiteSpace=wrap;html=1;aspect=fixed;sketch=1;curveFitting=1;jiggle=2;" vertex="1" parent="1">
          <mxGeometry x="2933" y="925" width="45" height="45" as="geometry" />
        </mxCell>
        <mxCell id="BA_Z5eX-vC3Ro55MNIHe-69" value="" style="endArrow=classic;html=1;rounded=0;sketch=1;hachureGap=4;jiggle=2;curveFitting=1;fontFamily=Architects Daughter;fontSource=https%3A%2F%2Ffonts.googleapis.com%2Fcss%3Ffamily%3DArchitects%2BDaughter;fontSize=16;" edge="1" parent="1">
          <mxGeometry width="50" height="50" relative="1" as="geometry">
            <mxPoint x="2894" y="979.75" as="sourcePoint" />
            <mxPoint x="3035" y="978.75" as="targetPoint" />
          </mxGeometry>
        </mxCell>
        <mxCell id="BA_Z5eX-vC3Ro55MNIHe-70" value="" style="endArrow=classic;html=1;rounded=0;sketch=1;hachureGap=4;jiggle=2;curveFitting=1;fontFamily=Architects Daughter;fontSource=https%3A%2F%2Ffonts.googleapis.com%2Fcss%3Ffamily%3DArchitects%2BDaughter;fontSize=16;" edge="1" parent="1">
          <mxGeometry width="50" height="50" relative="1" as="geometry">
            <mxPoint x="2201" y="966" as="sourcePoint" />
            <mxPoint x="2548" y="903" as="targetPoint" />
            <Array as="points">
              <mxPoint x="2201" y="826" />
              <mxPoint x="2547" y="820" />
            </Array>
          </mxGeometry>
        </mxCell>
        <mxCell id="BA_Z5eX-vC3Ro55MNIHe-71" value="&lt;font face=&quot;Architects Daughter&quot;&gt;&lt;span style=&quot;font-size: 20px;&quot;&gt;点乘&lt;br&gt;&lt;/span&gt;&lt;/font&gt;" style="ellipse;whiteSpace=wrap;html=1;aspect=fixed;sketch=1;curveFitting=1;jiggle=2;" vertex="1" parent="1">
          <mxGeometry x="2526" y="913" width="45" height="45" as="geometry" />
        </mxCell>
        <mxCell id="BA_Z5eX-vC3Ro55MNIHe-74" value="&lt;font face=&quot;Architects Daughter&quot;&gt;&lt;span style=&quot;font-size: 20px;&quot;&gt;W&lt;br&gt;&lt;/span&gt;&lt;/font&gt;" style="rounded=0;whiteSpace=wrap;html=1;sketch=1;curveFitting=1;jiggle=2;" vertex="1" parent="1">
          <mxGeometry x="3079" y="878" width="50" height="195" as="geometry" />
        </mxCell>
        <mxCell id="BA_Z5eX-vC3Ro55MNIHe-75" value="" style="endArrow=classic;html=1;rounded=0;sketch=1;hachureGap=4;jiggle=2;curveFitting=1;fontFamily=Architects Daughter;fontSource=https%3A%2F%2Ffonts.googleapis.com%2Fcss%3Ffamily%3DArchitects%2BDaughter;fontSize=16;" edge="1" parent="1">
          <mxGeometry width="50" height="50" relative="1" as="geometry">
            <mxPoint x="3283" y="979.8699999999999" as="sourcePoint" />
            <mxPoint x="3466" y="970.5" as="targetPoint" />
          </mxGeometry>
        </mxCell>
        <mxCell id="BA_Z5eX-vC3Ro55MNIHe-76" value="&lt;font style=&quot;font-size: 20px;&quot; data-font-src=&quot;https://fonts.googleapis.com/css?family=Architects+Daughter&quot; face=&quot;Architects Daughter&quot;&gt;W&lt;/font&gt;" style="rounded=0;whiteSpace=wrap;html=1;sketch=1;curveFitting=1;jiggle=2;" vertex="1" parent="1">
          <mxGeometry x="3488" y="864.5" width="50" height="195" as="geometry" />
        </mxCell>
        <mxCell id="BA_Z5eX-vC3Ro55MNIHe-77" value="&lt;font style=&quot;font-size: 20px;&quot; data-font-src=&quot;https://fonts.googleapis.com/css?family=Architects+Daughter&quot; face=&quot;Architects Daughter&quot;&gt;f&lt;/font&gt;" style="ellipse;whiteSpace=wrap;html=1;aspect=fixed;sketch=1;curveFitting=1;jiggle=2;" vertex="1" parent="1">
          <mxGeometry x="3229" y="956.75" width="45" height="45" as="geometry" />
        </mxCell>
        <mxCell id="BA_Z5eX-vC3Ro55MNIHe-78" value="" style="endArrow=classic;html=1;rounded=0;sketch=1;hachureGap=4;jiggle=2;curveFitting=1;fontFamily=Architects Daughter;fontSource=https%3A%2F%2Ffonts.googleapis.com%2Fcss%3Ffamily%3DArchitects%2BDaughter;fontSize=16;" edge="1" parent="1">
          <mxGeometry width="50" height="50" relative="1" as="geometry">
            <mxPoint x="3149" y="979.8699999999999" as="sourcePoint" />
            <mxPoint x="3209" y="978.6199999999999" as="targetPoint" />
          </mxGeometry>
        </mxCell>
        <mxCell id="BA_Z5eX-vC3Ro55MNIHe-79" value="&lt;font style=&quot;font-size: 20px;&quot; data-font-src=&quot;https://fonts.googleapis.com/css?family=Architects+Daughter&quot; face=&quot;Architects Daughter&quot;&gt;f&lt;/font&gt;" style="ellipse;whiteSpace=wrap;html=1;aspect=fixed;sketch=1;curveFitting=1;jiggle=2;" vertex="1" parent="1">
          <mxGeometry x="3628" y="943.25" width="45" height="45" as="geometry" />
        </mxCell>
        <mxCell id="BA_Z5eX-vC3Ro55MNIHe-80" value="" style="endArrow=classic;html=1;rounded=0;sketch=1;hachureGap=4;jiggle=2;curveFitting=1;fontFamily=Architects Daughter;fontSource=https%3A%2F%2Ffonts.googleapis.com%2Fcss%3Ffamily%3DArchitects%2BDaughter;fontSize=16;" edge="1" parent="1">
          <mxGeometry width="50" height="50" relative="1" as="geometry">
            <mxPoint x="3548" y="966.3699999999999" as="sourcePoint" />
            <mxPoint x="3608" y="965.1199999999999" as="targetPoint" />
          </mxGeometry>
        </mxCell>
        <mxCell id="BA_Z5eX-vC3Ro55MNIHe-81" value="" style="endArrow=classic;html=1;rounded=0;sketch=1;hachureGap=4;jiggle=2;curveFitting=1;fontFamily=Architects Daughter;fontSource=https%3A%2F%2Ffonts.googleapis.com%2Fcss%3Ffamily%3DArchitects%2BDaughter;fontSize=16;" edge="1" parent="1">
          <mxGeometry width="50" height="50" relative="1" as="geometry">
            <mxPoint x="3408" y="964.5" as="sourcePoint" />
            <mxPoint x="3755" y="901.5" as="targetPoint" />
            <Array as="points">
              <mxPoint x="3408" y="824.5" />
              <mxPoint x="3754" y="818.5" />
            </Array>
          </mxGeometry>
        </mxCell>
        <mxCell id="BA_Z5eX-vC3Ro55MNIHe-82" value="&lt;font face=&quot;Architects Daughter&quot;&gt;&lt;span style=&quot;font-size: 20px;&quot;&gt;点乘&lt;br&gt;&lt;/span&gt;&lt;/font&gt;" style="ellipse;whiteSpace=wrap;html=1;aspect=fixed;sketch=1;curveFitting=1;jiggle=2;" vertex="1" parent="1">
          <mxGeometry x="3733" y="911.5" width="45" height="45" as="geometry" />
        </mxCell>
        <mxCell id="BA_Z5eX-vC3Ro55MNIHe-83" value="" style="endArrow=classic;html=1;rounded=0;sketch=1;hachureGap=4;jiggle=2;curveFitting=1;fontFamily=Architects Daughter;fontSource=https%3A%2F%2Ffonts.googleapis.com%2Fcss%3Ffamily%3DArchitects%2BDaughter;fontSize=16;" edge="1" parent="1">
          <mxGeometry width="50" height="50" relative="1" as="geometry">
            <mxPoint x="3694" y="966.25" as="sourcePoint" />
            <mxPoint x="3835" y="965.25" as="targetPoint" />
          </mxGeometry>
        </mxCell>
        <mxCell id="BA_Z5eX-vC3Ro55MNIHe-84" value="" style="endArrow=classic;html=1;rounded=0;sketch=1;hachureGap=4;jiggle=2;curveFitting=1;fontFamily=Architects Daughter;fontSource=https%3A%2F%2Ffonts.googleapis.com%2Fcss%3Ffamily%3DArchitects%2BDaughter;fontSize=16;" edge="1" parent="1">
          <mxGeometry width="50" height="50" relative="1" as="geometry">
            <mxPoint x="3001" y="952.5" as="sourcePoint" />
            <mxPoint x="3348" y="889.5" as="targetPoint" />
            <Array as="points">
              <mxPoint x="3001" y="812.5" />
              <mxPoint x="3347" y="806.5" />
            </Array>
          </mxGeometry>
        </mxCell>
        <mxCell id="BA_Z5eX-vC3Ro55MNIHe-85" value="&lt;font face=&quot;Architects Daughter&quot;&gt;&lt;span style=&quot;font-size: 20px;&quot;&gt;点乘&lt;br&gt;&lt;/span&gt;&lt;/font&gt;" style="ellipse;whiteSpace=wrap;html=1;aspect=fixed;sketch=1;curveFitting=1;jiggle=2;" vertex="1" parent="1">
          <mxGeometry x="3326" y="899.5" width="45" height="45" as="geometry" />
        </mxCell>
      </root>
    </mxGraphModel>
  </diagram>
</mxfile>
